<svg width="13" height="14" viewBox="0 0 13 14" fill="none" xmlns="http://www.w3.org/2000/svg">
<path d="M6.02 1.96C4.82936 1.96 3.66545 2.31307 2.67547 2.97455C1.68549 3.63604 0.913887 4.57623 0.458248 5.67625C0.00260837 6.77626 -0.116608 7.98668 0.115675 9.15444C0.347958 10.3222 0.921308 11.3949 1.76322 12.2368C2.60513 13.0787 3.67779 13.652 4.84556 13.8843C6.01332 14.1166 7.22374 13.9974 8.32376 13.5418C9.42377 13.0861 10.364 12.3145 11.0254 11.3245C11.6869 10.3345 12.04 9.17064 12.04 7.98C12.0381 6.38396 11.4033 4.85383 10.2747 3.72526C9.14617 2.5967 7.61604 1.96185 6.02 1.96ZM8.589 10.731C8.5234 10.8057 8.44266 10.8655 8.35214 10.9065C8.26161 10.9476 8.16339 10.9689 8.064 10.969C7.89144 10.9705 7.72442 10.9081 7.595 10.794L5.558 8.988C5.48333 8.9224 5.42349 8.84166 5.38245 8.75113C5.34142 8.66061 5.32013 8.56239 5.32 8.463V4.963C5.32 4.77735 5.39375 4.5993 5.52503 4.46802C5.6563 4.33675 5.83435 4.263 6.02 4.263C6.20565 4.263 6.3837 4.33675 6.51498 4.46802C6.64625 4.5993 6.72 4.77735 6.72 4.963V8.12L8.526 9.716C8.59906 9.77701 8.65891 9.85228 8.7019 9.93721C8.74488 10.0221 8.77009 10.1149 8.77599 10.2099C8.78188 10.3049 8.76834 10.4001 8.73619 10.4897C8.70404 10.5793 8.65396 10.6614 8.589 10.731ZM4.249 0.889L8.12 1.4H3.92C3.73435 1.4 3.5563 1.32625 3.42503 1.19497C3.29375 1.0637 3.22 0.885651 3.22 0.7C3.22 0.514348 3.29375 0.336301 3.42503 0.205025C3.5563 0.0737497 3.73435 0 3.92 0H8.12C8.30565 0 8.4837 0.0737497 8.61498 0.205025C8.74625 0.336301 8.82 0.514348 8.82 0.7C8.82 0.885651 8.74625 1.0637 8.61498 1.19497C8.4837 1.32625 8.30565 1.4 8.12 1.4L4.249 0.889Z" fill="black"/>
</svg>
