<svg width="21" height="15" viewBox="0 0 21 15" fill="none" xmlns="http://www.w3.org/2000/svg">
<path d="M19.8352 15H1.16478C0.521379 15 0 14.4857 0 13.8511V1.14893C0 0.514286 0.521379 0 1.16478 0H19.8352C20.4786 0 21 0.514286 21 1.14893V13.8511C21 14.4857 20.4786 15 19.8352 15Z" fill="#F0C41B"/>
<path d="M21 1.78577H0V4.64291H21V1.78577Z" fill="#806F5E"/>
<path d="M5.43111 7.14281H2.17249C1.97263 7.14281 1.81042 6.98281 1.81042 6.78567C1.81042 6.58853 1.97263 6.42853 2.17249 6.42853H5.43111C5.63098 6.42853 5.79318 6.58853 5.79318 6.78567C5.79318 6.98281 5.63098 7.14281 5.43111 7.14281Z" fill="#F9EAB0"/>
<path d="M10.138 7.14281H6.8794C6.67954 7.14281 6.51733 6.98281 6.51733 6.78567C6.51733 6.58853 6.67954 6.42853 6.8794 6.42853H10.138C10.3379 6.42853 10.5001 6.58853 10.5001 6.78567C10.5001 6.98281 10.3379 7.14281 10.138 7.14281Z" fill="#F9EAB0"/>
<path d="M2.53456 8.92852H2.17249C1.97263 8.92852 1.81042 8.76852 1.81042 8.57138C1.81042 8.37423 1.97263 8.21423 2.17249 8.21423H2.53456C2.73442 8.21423 2.89663 8.37423 2.89663 8.57138C2.89663 8.76852 2.73442 8.92852 2.53456 8.92852Z" fill="#F9EAB0"/>
<path d="M4.70681 8.92852H3.98267C3.78281 8.92852 3.62061 8.76852 3.62061 8.57138C3.62061 8.37423 3.78281 8.21423 3.98267 8.21423H4.70681C4.90667 8.21423 5.06888 8.37423 5.06888 8.57138C5.06888 8.76852 4.90667 8.92852 4.70681 8.92852Z" fill="#F9EAB0"/>
<path d="M6.51723 8.92852H6.15516C5.9553 8.92852 5.79309 8.76852 5.79309 8.57138C5.79309 8.37423 5.9553 8.21423 6.15516 8.21423H6.51723C6.71709 8.21423 6.8793 8.37423 6.8793 8.57138C6.8793 8.76852 6.71709 8.92852 6.51723 8.92852Z" fill="#F9EAB0"/>
<path d="M8.6896 8.92852H7.96546C7.7656 8.92852 7.60339 8.76852 7.60339 8.57138C7.60339 8.37423 7.7656 8.21423 7.96546 8.21423H8.6896C8.88946 8.21423 9.05167 8.37423 9.05167 8.57138C9.05167 8.76852 8.88946 8.92852 8.6896 8.92852Z" fill="#F9EAB0"/>
<path d="M10.1379 8.92851C10.0438 8.92851 9.94967 8.88922 9.88088 8.82494C9.81571 8.75708 9.77588 8.6678 9.77588 8.57137C9.77588 8.47851 9.81571 8.38565 9.88088 8.3178C10.0148 8.18565 10.2574 8.18565 10.395 8.3178C10.4602 8.38565 10.5 8.47851 10.5 8.57137C10.5 8.66422 10.4602 8.75708 10.395 8.82494C10.3262 8.88922 10.2321 8.92851 10.1379 8.92851Z" fill="#F9EAB0"/>
<path d="M16.6551 11.0714C16.6551 12.255 15.6826 13.2142 14.4827 13.2142C13.2828 13.2142 12.3103 12.255 12.3103 11.0714C12.3103 9.88781 13.2828 8.92853 14.4827 8.92853C15.6826 8.92853 16.6551 9.88781 16.6551 11.0714Z" fill="#DB2215"/>
<path d="M19.1897 11.0714C19.1897 12.255 18.2172 13.2142 17.0173 13.2142C15.8174 13.2142 14.8448 12.255 14.8448 11.0714C14.8448 9.88781 15.8174 8.92853 17.0173 8.92853C18.2172 8.92853 19.1897 9.88781 19.1897 11.0714Z" fill="#245EA9"/>
</svg>
