<svg width="29" height="32" viewBox="0 0 29 32" fill="none" xmlns="http://www.w3.org/2000/svg">
<path fill-rule="evenodd" clip-rule="evenodd" d="M14.4298 32C1.3118 26.2758 0 16.7354 0 5.96276C0 -2.02729 28.8993 -1.94779 28.8993 5.96276C28.8993 16.7354 27.5875 26.2758 14.4298 32ZM6.99627 12.6808H12.4025V7.23481H16.4969V12.6808H21.9031V16.7354H16.4969V22.1416H12.4025V16.7354H6.99627V12.6808ZM14.4298 29.4162C24.9242 24.487 26.554 16.9342 26.554 5.96276C26.554 5.88326 26.554 5.84351 26.5143 5.76401C26.1962 4.69071 23.9304 3.81618 23.0161 3.53792C20.3528 2.66339 17.2522 2.34538 14.4298 2.34538C11.6472 2.34538 8.58633 2.66339 5.88322 3.49817C4.92919 3.81618 2.7031 4.69071 2.38509 5.72425C2.34534 5.80376 2.34534 5.88326 2.34534 5.96276C2.34534 16.9342 3.9354 24.487 14.4298 29.4162ZM14.4298 30.5292C25.6795 25.4012 27.5478 17.5305 27.5478 5.96276C27.5478 5.80376 27.5478 5.64475 27.4683 5.48574C27.031 3.97519 24.6459 2.9814 23.3341 2.54413C20.5515 1.6696 17.3317 1.35159 14.4298 1.35159C11.5677 1.35159 8.34782 1.6696 5.56521 2.54413C4.25341 2.9814 1.86832 3.93544 1.3913 5.44599C1.35155 5.605 1.3118 5.80376 1.3118 5.96276C1.3118 17.5305 3.18012 25.4012 14.4298 30.5292Z" fill="black"/>
</svg>
