<svg width="30" height="28" viewBox="0 0 30 28" fill="none" xmlns="http://www.w3.org/2000/svg">
<path opacity="0.4" d="M25.7763 9.85832C24.4638 4.46832 19.4263 2.04166 15.0013 2.04166H14.9888C10.5763 2.04166 5.52634 4.45666 4.21384 9.84666C2.75134 15.8667 6.70134 20.965 10.2763 24.1733C11.5435 25.318 13.2378 25.9581 15.0013 25.9583C16.7013 25.9583 18.4013 25.3633 19.7138 24.1733C23.2888 20.965 27.2388 15.8783 25.7763 9.85832Z" fill="black"/>
<path d="M15.0024 15.7033C15.5195 15.7033 16.0315 15.6083 16.5093 15.4236C16.987 15.2389 17.421 14.9682 17.7867 14.627C18.1523 14.2857 18.4423 13.8806 18.6402 13.4347C18.8381 12.9888 18.9399 12.5109 18.9399 12.0283C18.9399 11.5457 18.8381 11.0678 18.6402 10.622C18.4423 10.1761 18.1523 9.77097 17.7867 9.42972C17.421 9.08846 16.987 8.81776 16.5093 8.63308C16.0315 8.44839 15.5195 8.35333 15.0024 8.35333C13.9582 8.35333 12.9566 8.74052 12.2182 9.42972C11.4798 10.1189 11.0649 11.0537 11.0649 12.0283C11.0649 13.003 11.4798 13.9378 12.2182 14.627C12.9566 15.3161 13.9582 15.7033 15.0024 15.7033Z" fill="white"/>
</svg>
