<svg width="12" height="11" viewBox="0 0 12 11" fill="none" xmlns="http://www.w3.org/2000/svg">
<path d="M11.6212 5.66083C11.6212 5.66083 12.5316 4.13786 11.0396 3.87533H8.50708C8.50708 3.87533 9.95024 2.29272 9.38051 0.62161C9.38051 0.62161 9.00078 -0.131682 8.35516 0.0202363C8.35516 0.0202363 7.78543 0.194278 7.82352 1.18168C7.82352 1.18168 7.82352 2.19919 6.95009 2.76878C6.07666 3.33851 4.47052 4.43582 4.28066 4.7776C4.28066 4.7776 3.50048 5.4193 2.94041 5.26738V9.67275C2.94041 9.67275 3.92054 9.33601 6.38036 10.7362C7.84102 10.7362 10.0263 10.7362 10.0263 10.7362C10.0263 10.7362 11.6593 10.5463 11.2796 9.1411C11.2796 9.1411 12.3049 8.49548 11.6974 7.39411C11.6972 7.39411 12.4266 6.53566 11.6212 5.66083Z" fill="black"/>
<path d="M0.607675 10.3161H1.77262C2.10824 10.3161 2.38029 10.0441 2.38029 9.70846V5.46313C2.38029 5.12751 2.10824 4.85546 1.77262 4.85546H0.607675C0.272054 4.85546 0 5.12751 0 5.46313V9.70846C0 10.0441 0.272054 10.3161 0.607675 10.3161Z" fill="black"/>
</svg>
