<svg width="14" height="11" viewBox="0 0 14 11" fill="none" xmlns="http://www.w3.org/2000/svg">
<path fill-rule="evenodd" clip-rule="evenodd" d="M2.3061 3.62349C2.59646 3.0044 2.86867 2.3489 3.21347 1.63876C3.39494 1.31101 3.63086 1.00147 4.01195 0.96505H9.9824C10.3816 1.00147 10.5994 1.31101 10.799 1.63876C11.1438 2.3489 11.416 3.0044 11.7064 3.62349H2.3061ZM4.01195 0C3.37679 0 2.97755 0.23671 2.45128 0.983259L1.56206 2.98619H0.201018C0.00139787 2.98619 -0.379695 4.09691 1.03579 4.13333L0.563964 5.29867C0.563964 6.75535 0.582111 8.23024 0.582111 9.68692C0.582111 9.99646 0.818026 10.2332 1.12653 10.2332H2.95941C3.26791 10.2332 3.50382 9.99646 3.50382 9.68692V8.46695H10.4905V9.68692C10.4905 9.99646 10.7446 10.2332 11.0349 10.2332H12.886C13.1945 10.2332 13.4304 9.99646 13.4304 9.68692C13.4304 8.23024 13.4485 6.75535 13.4485 5.29867L12.9586 4.13333C14.3922 4.09691 13.993 2.98619 13.7933 2.98619H12.4323L11.5612 0.983259C11.0168 0.23671 10.6357 0 9.9824 0H4.01195ZM11.4342 5.38971C10.9442 5.38971 10.545 5.7903 10.545 6.28193C10.545 6.77356 10.9442 7.17415 11.4342 7.17415C11.9242 7.17415 12.3234 6.77356 12.3234 6.28193C12.3234 5.7903 11.9242 5.38971 11.4342 5.38971ZM2.56017 5.38971C3.05014 5.38971 3.44938 5.7903 3.44938 6.28193C3.44938 6.77356 3.05014 7.17415 2.56017 7.17415C2.07019 7.17415 1.67095 6.77356 1.67095 6.28193C1.67095 5.7903 2.07019 5.38971 2.56017 5.38971Z" fill="black"/>
</svg>
