<svg width="23" height="24" viewBox="0 0 23 24" fill="none" xmlns="http://www.w3.org/2000/svg">
<path d="M3.98533 19.8539C3.98533 19.8539 3.98533 5.42133 3.98533 3.2536H2.13307C0.96 3.2536 0 4.21387 0 5.38747V21.8669C0 23.0395 0.96 24 2.13307 24H14.8285C16.0019 24 16.9621 23.2499 16.9621 22.3336C16.9621 22.2157 16.9621 22.0997 16.9621 21.988C13.4891 21.988 6.1184 21.988 6.1184 21.988C4.94507 21.988 3.98533 21.028 3.98533 19.8539Z" fill="#B8B8B8"/>
<path d="M17.5551 5.93625H21.5983L16.5759 0.653046V4.95678C16.5759 5.49678 17.0151 5.93625 17.5551 5.93625Z" fill="#B8B8B8"/>
<path d="M17.5551 7.1776C16.3303 7.1776 15.3343 6.18133 15.3343 4.9568V0H7.35963C6.1863 0 5.22656 0.805067 5.22656 1.78827C5.22656 2.772 5.22656 18.6125 5.22656 18.6125C5.22656 19.7867 6.1863 20.7469 7.35963 20.7469C7.35963 20.7469 18.7039 20.7469 19.8772 20.7469H20.0548C21.2282 20.7469 22.1882 19.7867 22.1882 18.6125V7.1776H17.5551ZM18.6834 17.0187H8.7319V15.7776H18.6834V17.0187ZM18.6834 13.7016H8.7319V12.4605H18.6834V13.7016ZM18.6834 10.3845H8.7319V9.1432H18.6834V10.3845Z" fill="#B8B8B8"/>
</svg>
