<svg width="17" height="17" viewBox="0 0 17 17" fill="none" xmlns="http://www.w3.org/2000/svg">
<path fill-rule="evenodd" clip-rule="evenodd" d="M10.6392 6.3196C10.6392 8.70525 8.70525 10.6392 6.3196 10.6392C3.93395 10.6392 2 8.70525 2 6.3196C2 3.93395 3.93395 2 6.3196 2C8.70525 2 10.6392 3.93395 10.6392 6.3196ZM10.0479 11.4228C9.00276 12.1877 7.71391 12.6392 6.3196 12.6392C2.82938 12.6392 0 9.80982 0 6.3196C0 2.82938 2.82938 0 6.3196 0C9.80982 0 12.6392 2.82938 12.6392 6.3196C12.6392 7.7139 12.1877 9.00273 11.4228 10.0478L17 15.625L15.625 17L10.0479 11.4228Z" fill="#747474"/>
</svg>
