<svg width="32" height="28" viewBox="0 0 32 28" fill="none" xmlns="http://www.w3.org/2000/svg">
<path d="M12.3882 20.1644C12.3882 18.9495 12.9818 17.8764 13.8904 17.2096C13.8904 14.9342 13.8904 2.9357 13.8904 2.16217C13.8904 0.967348 14.8584 0 16.0532 0C17.2477 0 18.2154 0.967348 18.2154 2.16217C18.2154 2.28083 18.2154 2.65893 18.2154 3.222C18.2249 3.22166 18.2334 3.21928 18.2436 3.21928H20.7526C20.9736 3.21928 21.1538 3.39133 21.1538 3.6035V4.70753C21.1538 4.91936 20.9739 5.09107 20.7526 5.09107H18.2436C18.2334 5.09107 18.2249 5.08937 18.2154 5.08869C18.2154 5.88535 18.2154 6.79184 18.2154 7.74558C18.2249 7.74524 18.2334 7.74286 18.2436 7.74286H20.7526C20.9736 7.74286 21.1538 7.91491 21.1538 8.12742V9.23077C21.1538 9.44295 20.9739 9.615 20.7526 9.615H18.2436C18.2334 9.615 18.2249 9.61261 18.2154 9.61227C18.2154 10.5092 18.2154 11.4099 18.2154 12.2698C18.2249 12.2688 18.2334 12.2675 18.2436 12.2675H20.7526C20.9736 12.2675 21.1538 12.4392 21.1538 12.651V13.755C21.1538 13.9669 20.9739 14.1382 20.7526 14.1382H18.2436C18.2334 14.1382 18.2249 14.1369 18.2154 14.1355C18.2154 15.5 18.2154 16.6132 18.2154 17.2096C19.1249 17.8767 19.7183 18.9495 19.7183 20.1644C19.7183 22.1878 18.0767 23.828 16.0536 23.828C14.0294 23.828 12.3882 22.1878 12.3882 20.1644ZM20.3225 18.161C20.5839 18.7444 20.7308 19.3895 20.7308 20.0698C20.7308 20.1222 20.7291 20.1749 20.7271 20.2279C21.3578 20.0828 22.1249 20.2205 23.0174 21.0487C24.8991 22.7964 27.2503 22.8189 29.4676 21.112C30.8844 20.0198 31.6287 20.0542 31.6355 20.0542C31.5862 20.0511 31.5621 20.0423 31.5621 20.0423L32 17.976C31.6464 17.9015 30.3258 17.7856 28.1786 19.4384C26.7637 20.5278 25.5808 20.5479 24.4537 19.5013C23.1657 18.3045 21.7308 17.8573 20.3225 18.161ZM0.365518 20.0539C0.371978 20.0539 1.11628 20.0195 2.53279 21.1116C4.74969 22.8189 7.10091 22.7961 8.98324 21.0484C9.94685 20.1538 10.7649 20.0658 11.4235 20.2677C11.4208 20.2018 11.4184 20.1361 11.4184 20.0695C11.4184 19.4003 11.5602 18.7645 11.8146 18.1902C10.3634 17.8261 8.87682 18.2647 7.54667 19.5006C6.41986 20.5472 5.23626 20.5275 3.82111 19.4377C1.67424 17.7853 0.354297 17.9009 0.000679984 17.9753L0.438622 20.0416C0.438282 20.0419 0.41414 20.0511 0.365518 20.0539ZM28.1786 24.8144C26.7637 25.9032 25.5808 25.9232 24.4537 24.8766C22.5312 23.0905 20.2827 22.9647 18.2837 24.5315C17.4106 25.2167 16.7465 25.6424 16.1406 25.6505C16.092 25.6522 16.0457 25.6566 16.0002 25.6634C15.9539 25.6563 15.9073 25.6522 15.8594 25.6505C15.2538 25.6424 14.5898 25.2167 13.7156 24.5315C11.7177 22.9647 9.46913 23.0905 7.54599 24.8766C6.41918 25.9232 5.23558 25.9035 3.82043 24.8144C1.67356 23.1613 0.353617 23.2772 0 23.3524L0.437942 25.4176C0.437942 25.4176 0.4138 25.4265 0.365178 25.4295C0.371638 25.4295 1.11594 25.3969 2.53244 26.4873C4.74935 28.1945 7.10057 28.1724 8.9829 26.4241C10.5109 25.0052 11.6724 25.6128 12.4133 26.1932C13.4133 26.9773 14.5014 27.7443 15.8312 27.7624C15.8363 27.7624 15.8407 27.7624 15.8458 27.7624C15.8982 27.7624 15.9488 27.7549 15.9998 27.7464C16.0505 27.7545 16.1012 27.7624 16.1535 27.7624C16.159 27.7624 16.1634 27.7624 16.1685 27.7624C17.4979 27.744 18.5863 26.9769 19.5863 26.1932C20.3272 25.6128 21.4884 25.0052 23.0168 26.4241C24.8984 28.1718 27.2496 28.1942 29.4669 26.4873C30.8837 25.3952 31.628 25.4295 31.6348 25.4295C31.5855 25.4265 31.5614 25.4176 31.5614 25.4176L31.9993 23.3524C31.6467 23.2772 30.3261 23.1613 28.1786 24.8144Z" fill="black"/>
</svg>
