<svg width="26" height="24" viewBox="0 0 26 24" fill="none" xmlns="http://www.w3.org/2000/svg">
<path fill-rule="evenodd" clip-rule="evenodd" d="M13.6696 0.218393C13.2146 -0.0727978 12.6319 -0.0727978 12.1769 0.218393L0.638405 7.60301C-0.00568193 8.01523 -0.193651 8.87153 0.218565 9.51561C0.63078 10.1597 1.48708 10.3477 2.13117 9.93545L3.23094 9.2316V20.3077C3.23094 22.3469 4.88404 24 6.92325 24H18.9232C20.9625 24 22.6156 22.3469 22.6156 20.3077V9.2316L23.7153 9.93545C24.3594 10.3477 25.2157 10.1597 25.6279 9.51561C26.0401 8.87153 25.8522 8.01523 25.2081 7.60301L13.6696 0.218393ZM18.0002 14.3077C18.0002 17.1116 15.7272 19.3846 12.9232 19.3846C10.1193 19.3846 7.84632 17.1116 7.84632 14.3077C7.84632 11.5038 10.1193 9.23077 12.9232 9.23077C15.7272 9.23077 18.0002 11.5038 18.0002 14.3077Z" fill="#B8B8B8"/>
</svg>
