<svg width="32" height="23" viewBox="0 0 32 23" fill="none" xmlns="http://www.w3.org/2000/svg">
<path d="M31.3236 13.6991C31.7435 12.801 31.5395 11.829 30.9992 11.5776C30.46 11.3253 27.3576 9.87807 27.3576 9.87807C27.9047 7.17789 29.7995 8.28103 30.1652 7.02805C30.531 5.77408 31.1471 3.98086 31.3768 2.55043C31.6065 1.12 30.8938 0.342184 30.4275 0.124316C29.9622 -0.0925653 28.9083 -0.139885 27.959 0.956353C27.0106 2.0516 26.0336 3.67723 25.3081 4.76262C24.5845 5.84802 26.6458 6.59034 24.9285 8.74536C24.9285 8.74536 21.8271 7.29817 21.2879 7.04678C20.7477 6.79441 19.8722 7.26366 19.4533 8.16273L25.3889 10.9309L31.3236 13.6991ZM28.2419 2.25764C28.4943 1.71642 29.137 1.48377 29.6763 1.73614C30.2175 1.98753 30.4501 2.6293 30.1988 3.17052C29.9474 3.70976 29.3046 3.94439 28.7644 3.69202C28.2242 3.43965 27.9905 2.79787 28.2419 2.25764Z" fill="black"/>
<path d="M18.4545 10.3021L30.3267 15.838L31.0716 14.2405L19.1994 8.70463L18.4545 10.3021Z" fill="black"/>
<path d="M14.1702 18.1324C14.1377 18.0387 14.12 17.9431 14.0973 17.8475C13.98 17.8475 13.909 17.8475 13.909 17.8475C13.909 17.8475 10.8825 17.8475 9.71333 17.8475C8.54513 17.8475 9.50828 16.5087 10.8145 16.5087C12.1197 16.5087 13.909 16.5087 13.909 16.5087C13.909 16.5087 14.0066 16.5087 14.1555 16.5087C14.186 16.4131 14.2126 16.3175 14.256 16.2258L14.8239 15.0083C14.2885 15.0083 13.909 15.0083 13.909 15.0083C13.909 15.0083 11.9797 15.0083 10.57 15.0083C10.2043 15.0083 9.86318 14.8151 9.57926 14.5331H15.0447L15.3542 13.8657H9.09325C9.00551 13.6962 8.93552 13.5197 8.8882 13.3492H15.5977L15.9092 12.6798H8.83496C8.88524 12.3998 9.0548 12.2066 9.38407 12.2066C10.643 12.2066 13.909 12.2066 13.909 12.2066C13.909 12.2066 14.9786 12.2066 16.1291 12.2066L17.4264 9.42755C15.8324 9.54684 14.4768 9.52318 13.909 9.52318C12.6886 9.52318 7.86097 9.64246 4.77632 8.18246C4.75562 8.15387 4.73196 8.12626 4.71126 8.0957C5.30571 6.52331 6.90669 3.32924 8.81623 3.32924H18.9998C20.2212 3.32924 21.3165 4.63743 22.1012 5.99294L24.06 6.90581C23.3059 5.1609 21.5827 1.99542 18.9988 1.99542H8.81525C5.95833 1.99542 4.14835 5.8776 3.54108 7.41351C3.16647 7.06157 2.62131 6.77864 1.84251 6.77864C1.84251 6.77864 1.26876 6.77864 0.818235 6.77864C0.368699 6.77864 0 6.90286 0 7.84333C0 8.63791 0.297719 9.05195 1.71829 9.16237C1.15539 9.75485 0.704865 10.5524 0.704865 11.6003C0.704865 14.4178 0.704865 15.0123 0.704865 16.1982C0.704865 17.117 0.80049 18.5642 2.28613 19.1754V20.7961C2.28613 21.289 2.6844 21.6873 3.17731 21.6873H6.81205C7.30201 21.6873 7.70028 21.289 7.70028 20.7961V19.4613C10.7159 19.4613 13.908 19.4613 13.908 19.4613C13.908 19.4613 14.463 19.4613 15.3237 19.4613C14.7903 19.1675 14.3802 18.7081 14.1702 18.1324ZM6.39702 17.8475C5.88143 17.8475 4.95969 17.8475 4.51015 17.8475C3.86345 17.8475 2.83819 16.6615 3.5953 16.6615C4.02611 16.6615 4.56141 16.6615 5.23375 16.6615C5.84989 16.6615 6.29055 17.116 6.53602 17.461C6.68981 17.674 6.75882 17.8475 6.39702 17.8475ZM7.15512 13.5986C6.26295 13.5986 4.47565 13.5986 3.50757 13.5986C2.39063 13.5986 2.32753 12.6335 2.93677 11.8685C3.47898 11.1902 4.94786 11.1942 5.89129 11.5599C7.9004 12.3387 8.04926 13.5986 7.15512 13.5986Z" fill="black"/>
<path d="M15.4351 16.7759C15.1581 17.3713 15.4154 18.0811 16.0118 18.3581L17.041 18.8373L19.5134 15.7211L18.9239 19.7166L21.906 21.1066L24.1951 18.8895L23.8688 22.0225L25.7251 22.888C26.3206 23.166 27.0294 22.9087 27.3074 22.3123L30.0756 16.3757L18.2033 10.8402L15.4351 16.7759Z" fill="black"/>
</svg>
