<svg width="18" height="17" viewBox="0 0 18 17" fill="none" xmlns="http://www.w3.org/2000/svg">
<path d="M1.40626 1.98975H15.4688C16.2422 1.98975 16.875 2.62256 16.875 3.39601V5.08353C16.875 5.85698 16.2422 6.48979 15.4688 6.48979H1.40626C0.63281 6.48972 0 5.85691 0 5.08349V3.39597C0 2.62256 0.63281 1.98975 1.40626 1.98975Z" fill="#A86A3F"/>
<path d="M4.48594 3.49428L13.2891 1.15992C13.5844 1.07555 13.8938 1.25836 13.9781 1.55368L15.4406 6.95368C15.525 7.249 15.3422 7.55836 15.0469 7.64273L3.58595 10.6943C3.29063 10.7786 2.98127 10.5958 2.8969 10.3005L1.82812 6.33491L4.48594 3.49428Z" fill="#3DB39E"/>
<path d="M13.9079 6.78504L12.0095 7.29127C11.8548 7.33347 11.7001 7.24906 11.672 7.09439C11.6298 6.93971 11.7142 6.785 11.8689 6.7569L13.5001 6.32097L12.6283 3.05849L10.997 3.49442C10.8424 3.53662 10.6877 3.45222 10.6596 3.29754C10.6173 3.14286 10.7018 2.98815 10.8564 2.96005L12.7549 2.45382C12.9095 2.41162 13.0642 2.49602 13.0923 2.6507L14.1049 6.44755C14.147 6.60222 14.0626 6.7569 13.9079 6.78504ZM6.03293 8.90847L4.1345 9.41471C3.97982 9.45691 3.82511 9.3725 3.79701 9.21783L2.78451 5.42098C2.74231 5.2663 2.82671 5.11159 2.98139 5.08349L4.87982 4.57726C5.0345 4.53506 5.18921 4.61946 5.21731 4.77414C5.25951 4.92882 5.1751 5.08353 5.02043 5.11163L3.38918 5.54756L4.26104 8.81004L5.89229 8.37411C6.04696 8.3319 6.20168 8.41631 6.22978 8.57099C6.27198 8.7116 6.18761 8.86627 6.03293 8.90847Z" fill="#78CABB"/>
<path d="M0.112492 5.46306C2.6156 4.02866 9.36563 0.0770847 9.36563 0.0770847C9.63281 -0.0775918 9.98437 0.00678043 10.1391 0.273965L12.9516 5.11146C13.1062 5.37865 13.0078 5.71614 12.7406 5.87085L2.44685 11.7771C2.17967 11.9318 1.82811 11.8474 1.6734 11.5802C1.6734 11.5802 0.885911 9.9771 0.0983887 8.62707C0.0984244 5.46306 0.112492 6.50366 0.112492 5.46306Z" fill="#5ABEAC"/>
<path d="M11.5171 4.95685L9.54837 1.55371C9.464 1.41311 9.29526 1.3709 9.16868 1.45527L7.46713 2.43964C7.32652 2.52401 7.28432 2.69276 7.36869 2.81933C7.45306 2.95994 7.62181 3.00215 7.74838 2.91777L9.21089 2.07402L10.8984 4.99902L9.4359 5.84277C9.29529 5.92715 9.25309 6.09589 9.33746 6.22247C9.42183 6.36308 9.59058 6.40528 9.71715 6.32091L11.4187 5.33654C11.5452 5.26624 11.6015 5.09749 11.5171 4.95685ZM4.064 8.93655L2.6015 9.78031L0.913981 6.85528L2.37648 6.01152C2.51709 5.92715 2.55929 5.7584 2.47492 5.63183C2.39055 5.49122 2.2218 5.44901 2.09523 5.53338L0.393679 6.51775C0.253071 6.60212 0.210867 6.77087 0.295239 6.89745L2.26397 10.3006C2.34835 10.4412 2.51709 10.4834 2.64367 10.399L4.34521 9.41465C4.48582 9.33028 4.52803 9.16154 4.44366 9.03496C4.37335 8.90842 4.20461 8.85215 4.064 8.93655ZM4.78118 3.97248C3.69837 4.59122 3.33275 5.96935 3.95149 7.05216C4.5843 8.13496 5.94836 8.50059 7.03117 7.88185C8.11397 7.26311 8.4796 5.88498 7.86086 4.80217C7.22805 3.7334 5.86399 3.35374 4.78118 3.97248ZM11.5171 4.95685L9.54837 1.55371C9.464 1.41311 9.29526 1.3709 9.16868 1.45527L7.46713 2.43964C7.32652 2.52401 7.28432 2.69276 7.36869 2.81933C7.45306 2.95994 7.62181 3.00215 7.74838 2.91777L9.21089 2.07402L10.8984 4.99902L9.4359 5.84277C9.29529 5.92715 9.25309 6.09589 9.33746 6.22247C9.42183 6.36308 9.59058 6.40528 9.71715 6.32091L11.4187 5.33654C11.5452 5.26624 11.6015 5.09749 11.5171 4.95685ZM4.064 8.93655L2.6015 9.78031L0.913981 6.85528L2.37648 6.01152C2.51709 5.92715 2.55929 5.7584 2.47492 5.63183C2.39055 5.49122 2.2218 5.44901 2.09523 5.53338L0.393679 6.51775C0.253071 6.60212 0.210867 6.77087 0.295239 6.89745L2.26397 10.3006C2.34835 10.4412 2.51709 10.4834 2.64367 10.399L4.34521 9.41465C4.48582 9.33028 4.52803 9.16154 4.44366 9.03496C4.37335 8.90842 4.20461 8.85215 4.064 8.93655ZM4.78118 3.97248C3.69837 4.59122 3.33275 5.96935 3.95149 7.05216C4.5843 8.13496 5.94836 8.50059 7.03117 7.88185C8.11397 7.26311 8.4796 5.88498 7.86086 4.80217C7.22805 3.7334 5.86399 3.35374 4.78118 3.97248Z" fill="#8CD2C5"/>
<path d="M16.0313 16.0521H1.40626C0.63281 16.0521 0 15.4193 0 14.6459V4.52089H16.0313C16.8047 4.52089 17.4375 5.15369 17.4375 5.92715V14.6459C17.4375 15.4193 16.8047 16.0521 16.0313 16.0521ZM1.12501 4.52089H0V3.39587C0 4.01462 0.506234 4.52089 1.12501 4.52089Z" fill="#C47E4D"/>
<path d="M17.4375 12.5365H15.1875C14.1047 12.5365 13.2188 11.6505 13.2188 10.5677C13.2188 9.48493 14.1047 8.599 15.1875 8.599H17.4375C17.7469 8.599 18 8.85212 18 9.1615V11.974C18 12.2833 17.7469 12.5365 17.4375 12.5365Z" fill="#A86A3F"/>
<path d="M15.1875 9.44275C15.8063 9.44275 16.3125 9.94898 16.3125 10.5678C16.3125 11.1865 15.8063 11.6928 15.1875 11.6928C14.5688 11.6928 14.0625 11.1865 14.0625 10.5678C14.0625 9.94898 14.5688 9.44275 15.1875 9.44275Z" fill="#EFC75E"/>
<path d="M15.4688 11.4115C14.85 11.4115 14.3438 10.9053 14.3438 10.2865C14.3438 10.0475 14.4141 9.82246 14.5406 9.63965C14.2453 9.83653 14.0625 10.174 14.0625 10.5678C14.0625 11.1865 14.5687 11.6928 15.1875 11.6928C15.5672 11.6928 15.9047 11.4959 16.1156 11.2147C15.9328 11.3412 15.7078 11.4115 15.4688 11.4115Z" fill="#D7B354"/>
<path d="M16.0313 15.4896H1.40626C0.63281 15.4896 0 14.8568 0 14.0834V14.6459C0 15.4193 0.63281 16.0521 1.40626 16.0521H16.0313C16.8047 16.0521 17.4375 15.4193 17.4375 14.6459V14.0834C17.4375 14.8568 16.8047 15.4896 16.0313 15.4896Z" fill="#B27245"/>
<path d="M16.0313 4.52088H1.12501C0.506234 4.52088 0 4.01462 0 3.39587V3.95838C0 4.57712 0.506234 5.08339 1.12501 5.08339H16.0313C16.8047 5.08339 17.4375 5.7162 17.4375 6.48965V5.92715C17.4375 5.15369 16.8047 4.52088 16.0313 4.52088Z" fill="#CA8B5F"/>
</svg>
