<svg width="13" height="14" viewBox="0 0 13 14" fill="none" xmlns="http://www.w3.org/2000/svg">
<path d="M12.1032 6.23226V3.55269C12.1032 3.31183 11.9226 3.13118 11.7118 3.10108C7.67742 2.67957 6.50323 0.36129 6.44301 0.24086C6.3828 0.0903224 6.20215 0 6.05161 0C5.87097 0 5.72043 0.0903224 5.66022 0.24086C5.6 0.331183 4.45591 2.67957 0.391398 3.10108C0.150538 3.13118 0 3.31183 0 3.55269V6.23226C0 10.8688 5.6 13.8194 5.84086 13.9398C5.90108 13.9699 5.96129 14 6.05161 14C6.11183 14 6.20215 13.9699 6.26237 13.9398C6.50323 13.7892 12.1032 10.8688 12.1032 6.23226ZM8.7914 6.44301L5.93118 9.30323C5.75054 9.48387 5.53978 9.54409 5.32903 9.54409C5.11828 9.54409 4.87742 9.45376 4.72688 9.30323L3.31183 7.88817C2.98065 7.55699 2.98065 6.98495 3.31183 6.65376C3.64301 6.32258 4.21505 6.32258 4.54624 6.65376L5.35914 7.46667L7.5871 5.23871C7.91828 4.90753 8.49032 4.90753 8.82151 5.23871C9.15269 5.56989 9.15269 6.08172 8.7914 6.44301Z" fill="black"/>
</svg>
