<svg width="32" height="26" viewBox="0 0 32 26" fill="none" xmlns="http://www.w3.org/2000/svg">
<path d="M26.2856 12.5725C24.7028 12.5725 23.4285 13.8467 23.4285 15.4296V22.2867C23.4285 23.8696 24.7028 25.1439 26.2856 25.1439H28.5713C30.1542 25.1439 31.4285 23.8696 31.4285 22.2867V15.4296C31.4285 13.8467 30.1542 12.5725 28.5713 12.5725H26.2856ZM25.7142 14.8582H26.857V16.001H25.7142V14.8582ZM27.9999 14.8582H29.1428V16.001H27.9999V14.8582ZM25.7142 17.1439H26.857V18.2868H25.7142V17.1439ZM27.9999 17.1439H29.1428V18.2868H27.9999V17.1439ZM25.7142 19.4297H26.857V20.5725H25.7142V19.4297ZM27.9999 19.4297H29.1428V20.5725H27.9999V19.4297ZM25.7142 21.7154H26.857V22.8581H25.7142V21.7154ZM27.9999 21.7154H29.1428V22.8581H27.9999V21.7154Z" fill="black"/>
<path d="M14.2857 14.8582C13.0194 14.8582 12 15.8776 12 17.1439V22.8581C12 24.1244 13.0194 25.1439 14.2857 25.1439H17.7143C18.9806 25.1439 20 24.1244 20 22.8581V17.1439C20 15.8776 18.9806 14.8582 17.7143 14.8582H14.2857ZM14.2857 17.1439H15.4286V18.2868H14.2857V17.1439ZM16.5714 17.1439H17.7143V18.2868H16.5714V17.1439ZM14.2857 19.4297H15.4286V20.5725H14.2857V19.4297ZM16.5714 19.4297H17.7143V20.5725H16.5714V19.4297ZM14.2857 21.7154H15.4286V22.8581H14.2857V21.7154ZM16.5714 21.7154H17.7143V22.8581H16.5714V21.7154Z" fill="black"/>
<path d="M2.85725 14.8582C1.59096 14.8582 0.571533 15.8776 0.571533 17.1439V22.8581C0.571533 24.1244 1.59096 25.1439 2.85725 25.1439H6.28582C7.5521 25.1439 8.57153 24.1244 8.57153 22.8581V17.1439C8.57153 15.8776 7.5521 14.8582 6.28582 14.8582H2.85725ZM2.85725 17.1439H4.0001V18.2868H2.85725V17.1439ZM5.14296 17.1439H6.28582V18.2868H5.14296V17.1439ZM2.85725 19.4297H4.0001V20.5725H2.85725V19.4297ZM5.14296 19.4297H6.28582V20.5725H5.14296V19.4297ZM2.85725 21.7154H4.0001V22.8581H2.85725V21.7154ZM5.14296 21.7154H6.28582V22.8581H5.14296V21.7154Z" fill="black"/>
<path fill-rule="evenodd" clip-rule="evenodd" d="M8 0.571442V2.57141C8 2.98651 7.84942 3.38617 7.57589 3.69886L4.70759 6.97774C4.25196 7.49845 4 8.16757 4 8.85946V14H5.14286V8.85946C5.14286 8.44393 5.29343 8.04258 5.56696 7.73003L8.43527 4.45326C8.89089 3.93255 9.14285 3.2633 9.14286 2.57141V0.571442H8Z" fill="black"/>
<path fill-rule="evenodd" clip-rule="evenodd" d="M18.2856 0.571442V3.26794C18.2856 3.62516 18.1741 3.97485 17.9664 4.26568L15.9597 7.07383C15.6137 7.55826 15.4285 8.13919 15.4285 8.73449V14H16.5713V8.73449C16.5713 8.37727 16.6828 8.02749 16.8905 7.73675L18.8972 4.9286C19.2433 4.44417 19.4284 3.86338 19.4285 3.26794V0.571442H18.2856Z" fill="black"/>
<path fill-rule="evenodd" clip-rule="evenodd" d="M26.8572 0.571442V11.7144H28V0.571442H26.8572Z" fill="black"/>
<path fill-rule="evenodd" clip-rule="evenodd" d="M0 0V1.14287H32V0H0Z" fill="black"/>
</svg>
