<svg width="24" height="24" viewBox="0 0 24 24" fill="none" xmlns="http://www.w3.org/2000/svg">
<path d="M17.369 10.7378C13.7066 10.7378 10.7378 13.7066 10.7378 17.369C10.7378 21.0312 13.7066 24 17.369 24C21.0312 24 24 21.0312 24 17.369C24 13.7066 21.0312 10.7378 17.369 10.7378ZM20.707 18.1426H18.1426V20.7072H16.5958V18.1426H14.0311V16.5958H16.5958V14.0311H18.1426V16.5958H20.7072V18.1426H20.707ZM11.1698 21.2902C9.768 22.9514 8.68416 24 8.68416 24C8.68416 24 0 15.5969 0 8.6844C0 3.888 3.888 0 8.68416 0C13.4803 0 17.3683 3.888 17.3683 8.6844C17.3683 9.1296 17.3321 9.58104 17.2644 10.0361C16.4112 10.0483 15.5599 10.2079 14.7518 10.5161C14.9268 9.936 15.0209 9.32112 15.0209 8.6844C15.0209 5.18448 12.1838 2.34744 8.68392 2.34744C5.184 2.34744 2.3472 5.18448 2.3472 8.6844C2.3472 12.1841 5.18424 15.0211 8.68416 15.0211C9.32112 15.0211 9.936 14.9268 10.5158 14.7521C9.70296 16.8847 9.92088 19.32 11.1698 21.2902Z" fill="black"/>
</svg>
