<svg width="23" height="32" viewBox="0 0 23 32" fill="none" xmlns="http://www.w3.org/2000/svg">
<path d="M17.9875 4.84768C11.7155 3.27968 9.90016 3.2 9.6 3.2V0H1.6V4.19328C0.98272 4.9472 0 6.39936 0 8V28.8C0 30.3517 1.12192 32 3.2 32H19.2C21.2781 32 22.4 30.3517 22.4 28.8V11.2C22.4 9.02016 21.0314 5.60768 17.9875 4.84768ZM19.2 27.2C19.2 28.0838 18.4845 28.8 17.6 28.8H4.8C3.91552 28.8 3.2 28.0838 3.2 27.2V12.8C3.2 11.8605 4.09152 10.9741 5.18752 11.2477L17.9875 14.4477C18.7002 14.6259 19.2 15.2656 19.2 16V27.2ZM19.2 11.2C19.2 12.2838 18.1782 12.9939 17.2125 12.7523L10.8125 11.1523C10.1002 10.9741 9.6 10.3344 9.6 9.6V8C9.6 6.77856 10.7571 6.24032 11.5875 6.44768L17.9875 8.04768C18.7002 8.22592 19.2 8.8656 19.2 9.6V11.2ZM4.8 27.2H17.6V16L4.8 12.8V27.2ZM11.2 16C11.2 16 14.4 19.2 14.4 22.4C14.4 24.167 12.967 25.6 11.2 25.6C9.43296 25.6 8 24.167 8 22.4C8 19.2 11.2 16 11.2 16Z" fill="black"/>
</svg>
